<?xml version="1.0" encoding="UTF-8" standalone="no"?>
<!DOCTYPE svg PUBLIC "-//W3C//DTD SVG 1.1//EN" "http://www.w3.org/Graphics/SVG/1.1/DTD/svg11.dtd">
<svg version="1.1" xmlns="http://www.w3.org/2000/svg" xmlns:xlink="http://www.w3.org/1999/xlink" preserveAspectRatio="xMidYMid meet" viewBox="0 0 640 640" width="640" height="640"><defs><path d="M631.83 185.04C626.14 182.74 580.65 164.39 574.96 162.09C571.43 143.72 557.47 129.01 539.52 124.37C539.21 120.83 536.75 92.56 536.45 89.03C536 83.86 532.53 79.44 527.61 77.79C522.69 76.13 517.26 77.54 513.77 81.39C512.8 82.46 507.93 87.83 499.18 97.49C493.76 78.55 490.76 68.02 490.15 65.92C488.6 60.48 483.71 56.65 478.06 56.46C472.36 56.26 467.26 59.73 465.33 65.06C458.59 83.65 404.67 232.41 397.93 251C397.93 251 148.26 262.66 148.15 262.66C96.96 265.74 48.46 238.35 24.62 192.87C21.27 186.48 13.38 184.02 7 187.36C0.61 190.71 -1.85 198.6 1.5 204.99C22.8 245.64 60.54 274.25 103.81 284.66C99.32 289.9 89.67 302.87 84.03 323.27C77.89 345.45 75.68 380.81 98.24 425.7C94.58 430.67 65.3 470.44 61.64 475.41C59.51 478.32 58.67 481.97 59.32 485.52C60.93 494.25 73.82 564.13 75.43 572.87C76.57 579.06 81.97 583.55 88.27 583.55C89.91 583.55 103.03 583.55 104.67 583.55C108.54 583.55 112.22 581.83 114.7 578.86C117.18 575.89 118.21 571.97 117.52 568.16C116.84 564.42 113.44 545.75 107.32 512.13C172.07 463.52 208.04 436.52 215.24 431.12C215.43 430.97 215.05 431.27 215.24 431.12C225.55 422.45 233.04 412.91 238.4 403.09C294.65 412.97 371.62 426.33 420.96 434.27C423.13 448.1 440.52 558.7 442.69 572.53C443.69 578.87 449.16 583.55 455.59 583.55C456.94 583.55 467.74 583.55 469.09 583.55C476.3 583.55 482.15 577.71 482.15 570.5C482.15 556.46 482.15 444.19 482.15 430.16C494.4 421.79 498.78 407.79 501.69 394.08C501.78 393.65 530.73 260.03 530.73 260.03C536.19 260.94 541.7 261.42 547.25 261.42C585.48 261.42 620.49 239.04 638.61 203.01C640.25 199.75 640.45 195.95 639.16 192.54C637.87 189.12 635.21 186.4 631.83 185.04Z" id="ekhxFQz4J"></path></defs><g><g><g><use xlink:href="#ekhxFQz4J" opacity="1" fill="#4052b6" fill-opacity="1"></use><g><use xlink:href="#ekhxFQz4J" opacity="1" fill-opacity="0" stroke="#000000" stroke-width="1" stroke-opacity="0"></use></g></g></g></g></svg>